<?xml version="1.0" encoding="UTF-8" standalone="no"?>
<!-- Created with Inkscape (http://www.inkscape.org/) -->

<svg
   version="1.1"
   id="svg1"
   width="1148.1292"
   height="326.75"
   viewBox="0 0 1148.1292 326.75"
   sodipodi:docname="Cue2Logo.svg"
   inkscape:version="1.4 (86a8ad7, 2024-10-11)"
   inkscape:export-filename="Cue2Logo.png"
   inkscape:export-xdpi="32.608696"
   inkscape:export-ydpi="32.608696"
   xmlns:inkscape="http://www.inkscape.org/namespaces/inkscape"
   xmlns:sodipodi="http://sodipodi.sourceforge.net/DTD/sodipodi-0.dtd"
   xmlns="http://www.w3.org/2000/svg"
   xmlns:svg="http://www.w3.org/2000/svg">
  <defs
     id="defs1">
    <inkscape:path-effect
       effect="fillet_chamfer"
       id="path-effect12"
       is_visible="true"
       lpeversion="1"
       nodesatellites_param="F,0,1,1,0,0,0,1 @ F,0,1,1,0,0,0,1 @ F,0,1,1,0,0,0,1 @ F,0,1,1,0,0,0,1 @ F,0,1,1,0,0,0,1 @ F,0,1,1,0,0,0,1 @ F,0,1,1,0,0,0,1 @ F,0,0,1,0,0,0,1 @ F,0,1,1,0,0,0,1 @ F,0,1,1,0,0,0,1 @ F,0,1,1,0,0,0,1 @ F,0,1,1,0,0,0,1 @ F,0,1,1,0,0,0,1 @ F,0,1,1,0,0,0,1 @ F,0,1,1,0,0,0,1 @ F,0,0,1,0,0,0,1 @ F,0,1,1,0,0,0,1 @ F,0,1,1,0,0,0,1 | F,0,0,1,0,14.911191,0,1 @ F,0,0,1,0,1.8220229,0,1 @ F,0,0,1,0,2.0346829,0,1 @ F,0,0,1,0,0,0,1 @ F,0,0,1,0,0,0,1 @ F,0,0,1,0,0,0,1 @ F,0,0,1,0,0,0,1 @ F,0,0,1,0,0,0,1 @ F,0,0,1,0,0,0,1 @ F,0,0,1,0,0,0,1 @ F,0,0,1,0,0,0,1 @ F,0,0,1,0,0,0,1 @ F,0,0,1,0,0,0,1 @ F,0,0,1,0,0,0,1 @ F,0,0,1,0,0,0,1 | F,0,0,1,0,2.7125142,0,1 @ F,0,0,1,0,2.7125142,0,1 @ F,0,0,1,0,0,0,1 @ F,0,0,1,0,0,0,1 @ F,0,0,1,0,0.58317297,0,1 @ F,0,0,1,0,1.6414596,0,1 @ F,0,0,1,0,0,0,1 @ F,0,0,1,0,0,0,1 @ F,0,0,1,0,1.6941595,0,1 @ F,0,0,1,0,1.6941595,0,1 @ F,0,0,1,0,3.2816878,0,1 @ F,0,0,1,0,1.3675774,0,1 | F,0,0,1,0,2.249168,0,1 @ F,0,0,1,0,5.0749147,0,1 @ F,0,0,1,0,0,0,1 @ F,0,0,1,0,0,0,1 @ F,0,0,1,0,0,0,1 @ F,0,0,1,0,0,0,1 @ F,0,0,1,0,0,0,1 @ F,0,0,1,0,1.8867431,0,1 @ F,0,0,1,0,1.8882871,0,1 @ F,0,0,1,0,1.9353675,0,1 @ F,0,0,1,0,0,0,1 @ F,0,0,1,0,0,0,1 @ F,0,0,1,0,0,0,1 @ F,0,0,1,0,0,0,1 @ F,0,0,1,0,0,0,1 @ F,0,0,1,0,0,0,1 @ F,0,0,1,0,3.2842349,0,1 @ F,0,0,1,0,4.8333877,0,1 @ F,0,0,1,0,5.5054624,0,1 @ F,0,0,1,0,2.249168,0,1"
       radius="0"
       unit="px"
       method="auto"
       mode="F"
       chamfer_steps="1"
       flexible="false"
       use_knot_distance="true"
       apply_no_radius="true"
       apply_with_radius="true"
       only_selected="false"
       hide_knots="false" />
    <inkscape:path-effect
       effect="fillet_chamfer"
       id="path-effect9"
       is_visible="true"
       lpeversion="1"
       nodesatellites_param="F,0,0,1,0,14.911191,0,1 @ F,0,0,1,0,1.8220229,0,1 @ F,0,0,1,0,2.0346829,0,1 @ F,0,0,1,0,0,0,1 @ F,0,0,1,0,0,0,1 @ F,0,0,1,0,0,0,1 @ F,0,0,1,0,0,0,1 @ F,0,0,1,0,0,0,1 @ F,0,0,1,0,0,0,1 @ F,0,0,1,0,0,0,1 @ F,0,0,1,0,0,0,1 @ F,0,0,1,0,0,0,1 @ F,0,0,1,0,0,0,1 @ F,0,0,1,0,0,0,1 @ F,0,0,1,0,0,0,1 | F,0,0,1,0,2.7125142,0,1 @ F,0,0,1,0,2.7125142,0,1 @ F,0,0,1,0,0,0,1 @ F,0,0,1,0,0,0,1 @ F,0,0,1,0,0.58317297,0,1 @ F,0,0,1,0,1.6414596,0,1 @ F,0,0,1,0,0,0,1 @ F,0,0,1,0,0,0,1 @ F,0,0,1,0,1.6941595,0,1 @ F,0,0,1,0,1.6941595,0,1 @ F,0,0,1,0,3.2816878,0,1 @ F,0,0,1,0,1.3675774,0,1 | F,0,0,1,0,2.249168,0,1 @ F,0,0,1,0,5.0749147,0,1 @ F,0,0,1,0,0,0,1 @ F,0,0,1,0,0,0,1 @ F,0,0,1,0,0,0,1 @ F,0,0,1,0,0,0,1 @ F,0,0,1,0,0,0,1 @ F,0,0,1,0,1.8867431,0,1 @ F,0,0,1,0,1.8882871,0,1 @ F,0,0,1,0,1.9353675,0,1 @ F,0,0,1,0,0,0,1 @ F,0,0,1,0,0,0,1 @ F,0,0,1,0,0,0,1 @ F,0,0,1,0,0,0,1 @ F,0,0,1,0,0,0,1 @ F,0,0,1,0,0,0,1 @ F,0,0,1,0,3.2842349,0,1 @ F,0,0,1,0,4.8333877,0,1 @ F,0,0,1,0,5.5054624,0,1 @ F,0,0,1,0,2.249168,0,1"
       radius="0"
       unit="px"
       method="auto"
       mode="F"
       chamfer_steps="1"
       flexible="false"
       use_knot_distance="true"
       apply_no_radius="true"
       apply_with_radius="true"
       only_selected="false"
       hide_knots="false" />
    <inkscape:path-effect
       effect="fillet_chamfer"
       id="path-effect7"
       is_visible="true"
       lpeversion="1"
       nodesatellites_param="F,0,1,1,0,0,0,1 @ F,0,1,1,0,0,0,1 @ F,0,1,1,0,0,0,1 @ F,0,1,1,0,0,0,1 @ F,0,1,1,0,0,0,1 @ F,0,1,1,0,0,0,1 @ F,0,1,1,0,0,0,1 @ F,0,0,1,0,0,0,1 @ F,0,1,1,0,0,0,1 @ F,0,1,1,0,0,0,1 @ F,0,1,1,0,0,0,1 @ F,0,1,1,0,0,0,1 @ F,0,1,1,0,0,0,1 @ F,0,1,1,0,0,0,1 @ F,0,1,1,0,0,0,1 @ F,0,0,1,0,0,0,1 @ F,0,1,1,0,0,0,1 @ F,0,1,1,0,0,0,1 | F,0,0,1,0,14.911191,0,1 @ F,0,0,1,0,1.8220229,0,1 @ F,0,0,1,0,2.0346829,0,1 @ F,0,0,1,0,0,0,1 @ F,0,0,1,0,0,0,1 @ F,0,0,1,0,0,0,1 @ F,0,0,1,0,0,0,1 @ F,0,0,1,0,0,0,1 @ F,0,0,1,0,0,0,1 @ F,0,0,1,0,0,0,1 @ F,0,0,1,0,0,0,1 @ F,0,0,1,0,0,0,1 @ F,0,0,1,0,0,0,1 @ F,0,0,1,0,0,0,1 @ F,0,0,1,0,0,0,1 | F,0,0,1,0,2.7125142,0,1 @ F,0,0,1,0,2.7125142,0,1 @ F,0,0,1,0,0,0,1 @ F,0,0,1,0,0,0,1 @ F,0,0,1,0,0.58317297,0,1 @ F,0,0,1,0,1.6414596,0,1 @ F,0,0,1,0,0,0,1 @ F,0,0,1,0,0,0,1 @ F,0,0,1,0,1.6941595,0,1 @ F,0,0,1,0,1.6941595,0,1 @ F,0,0,1,0,3.2816878,0,1 @ F,0,0,1,0,1.3675774,0,1 | F,0,0,1,0,2.249168,0,1 @ F,0,0,1,0,5.0749147,0,1 @ F,0,0,1,0,0,0,1 @ F,0,0,1,0,0,0,1 @ F,0,0,1,0,0,0,1 @ F,0,0,1,0,0,0,1 @ F,0,0,1,0,0,0,1 @ F,0,0,1,0,1.8867431,0,1 @ F,0,0,1,0,1.8882871,0,1 @ F,0,0,1,0,1.9353675,0,1 @ F,0,0,1,0,0,0,1 @ F,0,0,1,0,0,0,1 @ F,0,0,1,0,0,0,1 @ F,0,0,1,0,0,0,1 @ F,0,0,1,0,0,0,1 @ F,0,0,1,0,0,0,1 @ F,0,0,1,0,3.2842349,0,1 @ F,0,0,1,0,4.8333877,0,1 @ F,0,0,1,0,5.5054624,0,1 @ F,0,0,1,0,2.249168,0,1"
       radius="0"
       unit="px"
       method="auto"
       mode="F"
       chamfer_steps="1"
       flexible="false"
       use_knot_distance="true"
       apply_no_radius="true"
       apply_with_radius="true"
       only_selected="false"
       hide_knots="false" />
    <inkscape:path-effect
       effect="fillet_chamfer"
       id="path-effect4"
       is_visible="true"
       lpeversion="1"
       nodesatellites_param="F,0,0,1,0,0,0,1 @ F,0,0,1,0,0,0,1 @ F,0,0,1,0,0,0,1 @ F,0,0,1,0,2.642987,0,1 @ F,0,1,1,0,2.642987,0,1 @ F,0,0,1,0,0,0,1 @ F,0,0,1,0,0,0,1 @ F,0,0,1,0,0,0,1 @ F,0,1,1,0,2.642987,0,1 @ F,0,1,1,0,2.642987,0,1"
       radius="0"
       unit="px"
       method="auto"
       mode="F"
       chamfer_steps="1"
       flexible="false"
       use_knot_distance="true"
       apply_no_radius="true"
       apply_with_radius="true"
       only_selected="false"
       hide_knots="false" />
    <inkscape:path-effect
       effect="fillet_chamfer"
       id="path-effect5"
       is_visible="true"
       lpeversion="1"
       nodesatellites_param="F,0,1,1,0,0,0,1 @ F,0,1,1,0,0,0,1 @ F,0,1,1,0,0,0,1 @ F,0,1,1,0,0,0,1 @ F,0,1,1,0,0,0,1 @ F,0,1,1,0,0,0,1 @ F,0,1,1,0,0,0,1 @ F,0,0,1,0,0,0,1 @ F,0,1,1,0,0,0,1 @ F,0,1,1,0,0,0,1 @ F,0,1,1,0,0,0,1 @ F,0,1,1,0,0,0,1 @ F,0,1,1,0,0,0,1 @ F,0,1,1,0,0,0,1 @ F,0,1,1,0,0,0,1 @ F,0,0,1,0,0,0,1 @ F,0,1,1,0,0,0,1 @ F,0,1,1,0,0,0,1 | F,0,0,1,0,14.911191,0,1 @ F,0,0,1,0,1.8220229,0,1 @ F,0,0,1,0,2.0346829,0,1 @ F,0,0,1,0,0,0,1 @ F,0,0,1,0,0,0,1 @ F,0,0,1,0,0,0,1 @ F,0,0,1,0,0,0,1 @ F,0,0,1,0,0,0,1 @ F,0,0,1,0,0,0,1 @ F,0,0,1,0,0,0,1 @ F,0,0,1,0,0,0,1 @ F,0,0,1,0,0,0,1 @ F,0,0,1,0,0,0,1 @ F,0,0,1,0,0,0,1 @ F,0,0,1,0,0,0,1 | F,0,0,1,0,2.7125142,0,1 @ F,0,0,1,0,2.7125142,0,1 @ F,0,0,1,0,0,0,1 @ F,0,0,1,0,0,0,1 @ F,0,0,1,0,0.58317297,0,1 @ F,0,0,1,0,1.6414596,0,1 @ F,0,0,1,0,0,0,1 @ F,0,0,1,0,0,0,1 @ F,0,0,1,0,1.6941595,0,1 @ F,0,0,1,0,1.6941595,0,1 @ F,0,0,1,0,3.2816878,0,1 @ F,0,0,1,0,1.3675774,0,1 | F,0,0,1,0,2.249168,0,1 @ F,0,0,1,0,5.0749147,0,1 @ F,0,0,1,0,0,0,1 @ F,0,0,1,0,0,0,1 @ F,0,0,1,0,0,0,1 @ F,0,0,1,0,0,0,1 @ F,0,0,1,0,0,0,1 @ F,0,0,1,0,1.8867431,0,1 @ F,0,0,1,0,1.8882871,0,1 @ F,0,0,1,0,1.9353675,0,1 @ F,0,0,1,0,0,0,1 @ F,0,0,1,0,0,0,1 @ F,0,0,1,0,0,0,1 @ F,0,0,1,0,0,0,1 @ F,0,0,1,0,0,0,1 @ F,0,0,1,0,0,0,1 @ F,0,0,1,0,3.2842349,0,1 @ F,0,0,1,0,4.8333877,0,1 @ F,0,0,1,0,5.5054624,0,1 @ F,0,0,1,0,2.249168,0,1"
       radius="0"
       unit="px"
       method="auto"
       mode="F"
       chamfer_steps="1"
       flexible="false"
       use_knot_distance="true"
       apply_no_radius="true"
       apply_with_radius="true"
       only_selected="false"
       hide_knots="false" />
    <inkscape:path-effect
       effect="fillet_chamfer"
       id="path-effect3"
       is_visible="true"
       lpeversion="1"
       nodesatellites_param="F,0,0,1,0,0,0,1 @ F,0,0,1,0,0,0,1 @ F,0,0,1,0,0,0,1 @ F,0,0,1,0,0,0,1 @ F,0,0,1,0,0,0,1 @ F,0,0,1,0,0,0,1 @ F,0,0,1,0,0,0,1 @ F,0,0,1,0,0,0,1 @ F,0,0,1,0,0,0,1 @ F,0,0,1,0,0,0,1 @ F,0,0,1,0,0,0,1 @ F,0,0,1,0,0,0,1 @ F,0,0,1,0,0,0,1 @ F,0,0,1,0,0,0,1 @ F,0,0,1,0,0,0,1 @ F,0,0,1,0,0,0,1 @ F,0,0,1,0,0,0,1 @ F,0,0,1,0,0,0,1 | F,0,0,1,0,14.911191,0,1 @ F,0,0,1,0,1.8220229,0,1 @ F,0,0,1,0,2.0346829,0,1 @ F,0,0,1,0,0,0,1 @ F,0,0,1,0,0,0,1 @ F,0,0,1,0,0,0,1 @ F,0,0,1,0,0,0,1 @ F,0,0,1,0,0,0,1 @ F,0,0,1,0,0,0,1 @ F,0,0,1,0,0,0,1 @ F,0,0,1,0,0,0,1 @ F,0,0,1,0,0,0,1 @ F,0,0,1,0,0,0,1 @ F,0,0,1,0,0,0,1 @ F,0,0,1,0,0,0,1 | F,0,0,1,0,3.2816878,0,1 @ F,0,0,1,0,1.1812259,0,1 @ F,0,0,1,0,1.1812259,0,1 @ F,0,0,1,0,0,0,1 @ F,0,0,1,0,0,0,1 @ F,0,0,1,0,0.58317297,0,1 @ F,0,0,1,0,1.6414596,0,1 @ F,0,0,1,0,0,0,1 @ F,0,0,1,0,0,0,1 @ F,0,0,1,0,0,0,1 @ F,0,0,1,0,0,0,1 @ F,0,0,1,0,0,0,1 @ F,0,0,1,0,3.2816878,0,1 | F,0,0,1,0,2.249168,0,1 @ F,0,0,1,0,5.0749147,0,1 @ F,0,0,1,0,0,0,1 @ F,0,0,1,0,0,0,1 @ F,0,0,1,0,0,0,1 @ F,0,0,1,0,0,0,1 @ F,0,0,1,0,0,0,1 @ F,0,0,1,0,1.8867431,0,1 @ F,0,0,1,0,1.8882871,0,1 @ F,0,0,1,0,1.9353675,0,1 @ F,0,0,1,0,0,0,1 @ F,0,0,1,0,0,0,1 @ F,0,0,1,0,0,0,1 @ F,0,0,1,0,0,0,1 @ F,0,0,1,0,0,0,1 @ F,0,0,1,0,0,0,1 @ F,0,0,1,0,3.2842349,0,1 @ F,0,0,1,0,4.8333877,0,1 @ F,0,0,1,0,5.5054624,0,1 @ F,0,0,1,0,2.249168,0,1"
       radius="0"
       unit="px"
       method="auto"
       mode="F"
       chamfer_steps="1"
       flexible="false"
       use_knot_distance="true"
       apply_no_radius="true"
       apply_with_radius="true"
       only_selected="false"
       hide_knots="false" />
    <inkscape:path-effect
       effect="fillet_chamfer"
       id="path-effect2"
       is_visible="true"
       lpeversion="1"
       nodesatellites_param="F,0,0,1,0,0,0,1 @ F,0,0,1,0,0,0,1 @ F,0,0,1,0,0,0,1 @ F,0,0,1,0,0,0,1 @ F,0,0,1,0,0,0,1 @ F,0,0,1,0,0,0,1 @ F,0,0,1,0,0,0,1 @ F,0,0,1,0,0,0,1 @ F,0,0,1,0,0,0,1 @ F,0,0,1,0,0,0,1 @ F,0,0,1,0,0,0,1 @ F,0,0,1,0,0,0,1 @ F,0,0,1,0,0,0,1 @ F,0,0,1,0,0,0,1 @ F,0,0,1,0,0,0,1 @ F,0,0,1,0,0,0,1 @ F,0,0,1,0,0,0,1 @ F,0,0,1,0,0,0,1 | F,0,0,1,0,0,0,1 @ F,0,0,1,0,0,0,1 @ F,0,0,1,0,0,0,1 @ F,0,0,1,0,0,0,1 @ F,0,0,1,0,0,0,1 @ F,0,0,1,0,0,0,1 @ F,0,0,1,0,0,0,1 @ F,0,0,1,0,0,0,1 @ F,0,0,1,0,0,0,1 @ F,0,0,1,0,0,0,1 @ F,0,0,1,0,0,0,1 @ F,0,0,1,0,0,0,1 @ F,0,0,1,0,0,0,1 @ F,0,0,1,0,0,0,1 @ F,0,0,1,0,0,0,1 @ F,0,0,1,0,0,0,1 @ F,0,0,1,0,0,0,1 @ F,0,0,1,0,0,0,1 @ F,0,0,1,0,0,0,1 @ F,0,0,1,0,0,0,1 @ F,0,0,1,0,0,0,1 | F,0,0,1,0,0,0,1 @ F,0,0,1,0,0,0,1 @ F,0,0,1,0,0,0,1 @ F,0,0,1,0,0,0,1 @ F,0,0,1,0,0,0,1 @ F,0,0,1,0,0,0,1 @ F,0,0,1,0,0,0,1 @ F,0,0,1,0,0,0,1 @ F,0,0,1,0,1.0928969,0,1 @ F,0,0,1,0,0,0,1 @ F,0,0,1,0,0,0,1 @ F,0,0,1,0,0,0,1 @ F,0,0,1,0,0,0,1 @ F,0,0,1,0,0,0,1 @ F,0,0,1,0,0,0,1 @ F,0,0,1,0,0,0,1 | F,0,0,1,0,0,0,1 @ F,0,0,1,0,0,0,1 @ F,0,0,1,0,0,0,1 @ F,0,0,1,0,0,0,1 @ F,0,0,1,0,0,0,1 @ F,0,0,1,0,0,0,1 @ F,0,0,1,0,0,0,1 @ F,0,0,1,0,0,0,1 @ F,0,0,1,0,0,0,1 @ F,0,0,1,0,0,0,1 @ F,0,0,1,0,0,0,1 @ F,0,0,1,0,0,0,1 @ F,0,0,1,0,0,0,1 @ F,0,0,1,0,0,0,1 @ F,0,0,1,0,0,0,1 @ F,0,0,1,0,0,0,1 @ F,0,0,1,0,0,0,1 @ F,0,0,1,0,0,0,1 @ F,0,0,1,0,0,0,1 @ F,0,0,1,0,0,0,1 @ F,0,0,1,0,0,0,1 @ F,0,0,1,0,0,0,1 @ F,0,0,1,0,0,0,1 @ F,0,0,1,0,0,0,1 @ F,0,0,1,0,0,0,1 @ F,0,0,1,0,0,0,1 @ F,0,0,1,0,0,0,1 @ F,0,0,1,0,0,0,1"
       radius="0"
       unit="px"
       method="auto"
       mode="F"
       chamfer_steps="1"
       flexible="false"
       use_knot_distance="true"
       apply_no_radius="true"
       apply_with_radius="true"
       only_selected="false"
       hide_knots="false" />
  </defs>
  <sodipodi:namedview
     id="namedview1"
     pagecolor="#000000"
     bordercolor="#000000"
     borderopacity="0.25"
     inkscape:showpageshadow="2"
     inkscape:pageopacity="0.0"
     inkscape:pagecheckerboard="false"
     inkscape:deskcolor="#5b5b5b"
     inkscape:zoom="1.238185"
     inkscape:cx="966.33378"
     inkscape:cy="174.04507"
     inkscape:window-width="1920"
     inkscape:window-height="1017"
     inkscape:window-x="2992"
     inkscape:window-y="528"
     inkscape:window-maximized="1"
     inkscape:current-layer="svg1" />
  <g
     inkscape:groupmode="layer"
     inkscape:label="Logo Full"
     id="g1"
     inkscape:export-filename="g1.png"
     inkscape:export-xdpi="5.8760519"
     inkscape:export-ydpi="5.8760519"
     style="display:inline"
     transform="translate(-201.00775,-257.27147)">
    <path
       id="path1"
       style="display:inline;mix-blend-mode:normal;fill:#eb6f02;fill-opacity:1;stroke-width:1.95968"
       inkscape:highlight-color="#eb6f02"
       d="m 1227.8905,257.38471 c -35.9433,-0.053 -64.6433,12.14753 -88.5742,37.65631 -17.2115,18.34648 -30.6693,46.73472 -32.2343,67.28514 -0.1623,2.13108 -0.1524,5.60054 -0.1524,7.73829 v 1.39452 a 3.7290558,3.7290558 0 0 0 3.7773,3.72654 l 56.0157,-0.70703 a 4.6806604,4.6806604 0 0 0 4.5274,-3.74604 l 2.5741,-12.62504 c 5.9279,-18.70583 12.736,-27.25511 27.6173,-34.69135 22.774,-11.38041 50.7824,-6.23783 66.3477,11.44533 13.12,14.90519 14.2927,37.70771 3.6483,54.75381 -4.3953,7.03901 -31.9599,33.23106 -36.8555,37.74219 -0.3165,0.2916 -18.3628,15.31249 -24.6835,20.5977 l 53.6484,37.56639 c 8.6486,-7.27464 19.1141,-16.13024 22.5899,-19.00387 26.5527,-21.95301 37.2705,-33.66178 45.4688,-46.64842 9.1585,-14.50832 13.3267,-30.4793 13.3007,-50.95316 -0.041,-32.48412 -9.7122,-56.93091 -30.9101,-78.1289 -23.1421,-23.14203 -49.458,-33.34836 -86.1056,-33.40241 z" />
    <path
       id="path7"
       clip-path="none"
       style="display:inline;fill:#ffffff;fill-opacity:1;stroke-width:2"
       inkscape:label="path7"
       d="m 365.14837,257.27147 c -90.65122,-0.002 -164.13968,73.12297 -164.14062,163.32813 9.4e-4,90.20514 73.4894,163.32988 164.14062,163.32812 60.58724,-3e-4 113.75755,-32.67119 142.36329,-81.26953 1.48082,-2.51576 0.69487,-5.99104 -1.66407,-7.71094 l -12.95703,-9.44531 c -2.35894,-1.71992 -5.28079,-0.97349 -6.64844,1.60547 -22.21062,41.8829 -66.35061,68.22694 -118.57421,68.22656 -76.32736,5.2e-4 -138.20321,-60.85221 -138.20313,-135.91797 -8e-5,-75.06576 61.87577,-135.91849 138.20313,-135.91797 49.3496,-3.6e-4 90.71922,25.45817 113.8164,63.73047 1.50834,2.4993 4.63154,3.29553 7.08594,1.71485 l 13.70312,-8.82422 c 2.45441,-1.58068 3.23258,-4.89562 1.64844,-7.34766 -29.32392,-45.38994 -80.62186,-75.49972 -138.77344,-75.5 z m 452.69532,6.19141 c -1.5115,-0.002 -2.73785,1.22287 -2.73828,2.73437 v 305.79688 c -0.002,3.6242 2.94222,6.55967 6.5664,6.54687 l 199.12109,-0.61328 c 1.8729,-0.007 3.3882,-1.52557 3.3906,-3.39844 l 0.024,-18.42187 c 0,-1.87773 -1.5091,-3.40627 -3.3868,-3.42188 L 843.89837,551.08006 V 439.47069 h 131.47657 c 1.81131,-5.8e-4 3.27892,-1.46994 3.27734,-3.28125 l -0.0352,-24.27734 c -0.002,-0.64353 -0.52443,-1.16408 -1.16796,-1.16407 H 843.89837 V 291.15038 h 173.39843 c 2.9952,4.3e-4 5.4241,-2.42665 5.4258,-5.42188 v -16.83984 c 4e-4,-2.99676 -2.429,-5.42621 -5.4258,-5.42578 z m -36.38672,0.15625 c -2.44688,-0.0975 -5.1824,-0.0721 -7.61328,0.10156 l -8.83985,0.63281 -1.04297,107 c -0.90138,92.2825 -1.98933,107.94361 -4.28515,115.14453 -9.92624,31.1339 -39.15224,68.56917 -96.1836,68.90235 -57.03134,0.3332 -81.56324,-32.69972 -90.6914,-51.3086 -10.55248,-21.51256 -10.74784,-23.94354 -10.77344,-133.99218 -0.0162,-65.4507 0.01,-92.9195 0.0195,-102.27344 0.003,-2.2474 -1.81898,-4.07985 -4.0664,-4.08985 l -21.0625,-0.0976 c -2.01252,-0.01 -3.65025,1.61312 -3.65625,3.625 -0.0692,21.11828 -0.37529,128.79591 0.34765,183.95703 0.21582,16.46764 1.68651,43.56127 8.53125,58.44531 17.51172,38.0796 62.5927,74.39387 119.98438,74.35547 71.88684,-0.0479 115.00181,-53.13188 125.92968,-95.85937 3.68494,-14.40806 3.94922,-22.42393 3.94922,-119.08985 V 265.43163 l -4.66015,-1.17188 c -1.28162,-0.32164 -3.43984,-0.54308 -5.88672,-0.64062 z m 428.44143,184.33593 c 0,0 -79.1365,66.05935 -102.0469,85.14844 -4.3066,3.5883 -7.6276,11.03911 -7.4141,16.64063 l 0.793,20.71875 c 0.095,2.48256 1.6603,5.52484 3.6172,6.57422 2.1811,1.16963 6.169,1.72619 8.6484,1.75 28.3515,0.27153 181.9945,0.009 224.6875,-0.0703 6.0812,-0.0113 10.9852,-4.95017 10.9532,-11.03125 l -0.1915,-36.82812 c -0.028,-5.33874 -4.3799,-9.68913 -9.7187,-9.70313 -36.404,-0.102 -92.4738,-0.0116 -111.4922,0.0234 -3.6275,0.007 -4.3188,-1.88656 -1.5469,-4.22656 13.5016,-11.41505 37.3594,-31.42969 37.3594,-31.42969 z"
       sodipodi:nodetypes="cccsccccccscccccccccccccccccccccccccccccssscccccsscssccscccsscscccccccc" />
  </g>
  <g
     inkscape:groupmode="layer"
     inkscape:label="Logo 2"
     id="g11"
     inkscape:export-filename="g2.png"
     inkscape:export-xdpi="49.407116"
     inkscape:export-ydpi="49.407116"
     style="display:none;opacity:0"
     transform="translate(-162.17409,-245.8498)">
    <g
       id="g9">
      <path
         style="display:none;fill:#ffffff;fill-opacity:1"
         d="m 554.10834,500.5689 c -33.99608,-7.24539 -59.24348,-32.54693 -65.00736,-65.14677 -1.58387,-8.95814 -0.80767,-28.77464 1.44622,-36.92213 5.79486,-20.94765 22.73216,-40.98116 43.06114,-50.93291 10.71199,-5.24389 18.99571,-7.39372 31.64258,-8.21202 24.1688,-1.56381 47.56674,6.89293 64.53845,24.9652 11.0911,11.81033 11.67737,13.35203 6.98974,17.09992 -4.80095,3.8385 -6.77037,5.75429 -13.13963,-3.17019 C 611.18825,360.80359 591.661,353 570.10834,353 c -23.58923,0 -43.79859,10.84464 -57.45468,30.83103 -7.1315,10.4373 -9.84913,19.26737 -10.35076,33.63136 -0.44493,12.74056 0.54543,19.51175 4.1008,28.03761 6.1775,14.81381 18.91968,28.551 32.85434,35.41987 19.79837,9.7593 44.55102,8.90285 63.95558,-1.14664 9.98044,-5.1688 21.0954,-15.98943 27.8575,-26.44983 1.76043,-1.15514 4.19918,0.1529 6.47077,1.75805 4.03942,2.85432 4.48152,3.35543 4.47192,4.70004 -0.0505,7.07007 -16.33253,24.51025 -33.32614,33.61347 -15.28413,8.18747 -38.49568,10.60176 -54.57933,7.17394 z m 100.23058,-64.63465 c -0.36147,-27.58056 -0.2078,-81.42078 -0.1732,-91.97992 0.003,-1.00594 0.82199,-1.8175 1.82825,-1.81266 l 10.53194,0.0507 c 1.12371,0.005 2.03306,0.92075 2.03175,2.04447 -0.005,4.67702 -0.0161,18.41042 -0.008,51.13567 0.0128,55.02432 0.11054,56.24032 5.38678,66.9966 4.56408,9.30444 16.82909,25.82172 45.34476,25.65512 28.51568,-0.16659 43.12832,-18.88596 48.09144,-34.45291 1.14791,-3.60046 1.69187,-11.43 2.14257,-57.57125 l 0.52258,-53.5 4.41979,-0.31579 c 2.43088,-0.17368 5.46838,-0.0526 6.75,0.26905 l 2.33016,0.58482 v 51.82099 c 0,48.33296 -0.13297,52.34087 -1.97544,59.5449 -5.46394,21.36375 -27.02126,47.90526 -62.96468,47.92922 -28.69584,0.0192 -51.23553,-18.13765 -59.99139,-37.17745 -3.42237,-7.44202 -4.15891,-20.98769 -4.26682,-29.22151 z M 898.8966,344.76718 v 8.41965 a 2.7125142,2.7125142 135 0 1 -2.71251,2.71251 h -86.69973 v 59.79755 h 66.77635 a 0.5839775,0.5839775 44.960505 0 1 0.58397,0.58317 l 0.0167,12.1375 a 1.6391982,1.6391982 134.96051 0 1 -1.6392,1.64146 l -65.73786,0 v 55.80388 l 88.46148,0.80369 a 1.7076007,1.7076007 45.29414 0 1 1.69209,1.70955 l -0.0109,9.21213 a 1.7013715,1.7013715 134.94606 0 1 -1.69615,1.69935 l -99.56068,0.3052 a 3.2716434,3.2716434 44.912182 0 1 -3.28167,-3.27163 V 343.42225 a 1.3675774,1.3675774 135 0 1 1.36758,-1.36758 h 99.72798 a 2.7125142,2.7125142 45 0 1 2.71251,2.71251 z m 39.25282,150.78839 -0.39485,-10.36082 c -0.10673,-2.80076 1.55242,-6.52558 3.70572,-8.31973 14.22614,-11.8533 62.55301,-52.12484 63.36541,-52.87344 2.4478,-2.25557 16.2309,-15.35047 18.4286,-18.86994 5.3222,-8.52307 4.7353,-19.9252 -1.8248,-27.37785 -7.7826,-8.84154 -21.78715,-11.41368 -33.17419,-5.72351 -7.44064,3.71813 -10.84389,7.99357 -13.80782,17.34649 l -1.2871,6.31281 a 2.3403301,2.3403301 140.39923 0 1 -2.26352,1.8726 l -28.00873,0.35466 A 1.8645279,1.8645279 44.637264 0 1 941,396.05246 v -0.69735 c 0,-1.06888 -0.005,-2.80324 0.0761,-3.86878 0.78251,-10.27521 7.51139,-24.4697 16.11719,-33.64294 11.96541,-12.75439 26.31489,-18.85512 44.2866,-18.82861 18.3238,0.027 31.4814,5.13168 43.0524,16.70268 10.599,10.59901 15.4351,22.82201 15.4558,39.06409 0.013,10.23694 -2.0715,18.22208 -6.6508,25.47621 -4.0991,6.49335 -9.4578,12.34729 -22.7342,23.32377 -4.6123,3.81326 -23.1794,19.47962 -29.9768,25.21774 -1.38593,1.17 -1.03888,2.11563 0.7749,2.11229 9.5092,-0.0175 37.5436,-0.0615 55.7456,-0.0105 2.6694,0.007 4.8446,2.18087 4.8585,4.85024 l 0.096,18.41405 c 0.016,3.04054 -2.4362,5.51029 -5.4768,5.51596 -21.3465,0.0398 -98.16662,0.17167 -112.34237,0.0359 -1.2397,-0.0119 -3.23533,-0.29078 -4.32588,-0.8756 -0.97843,-0.52469 -1.75953,-2.04478 -1.80683,-3.28606 z"
         id="path9"
         clip-path="none"
         sodipodi:nodetypes="sssssssssssssscsssssccsszsscsscsszsccccccccccccccsssssccssssssscccccc"
         inkscape:original-d="m 554.10834,500.5689 c -33.99608,-7.24539 -59.24348,-32.54693 -65.00736,-65.14677 -1.58387,-8.95814 -0.80767,-28.77464 1.44622,-36.92213 5.79486,-20.94765 22.73216,-40.98116 43.06114,-50.93291 10.71199,-5.24389 18.99571,-7.39372 31.64258,-8.21202 24.1688,-1.56381 47.56674,6.89293 64.53845,24.9652 11.0911,11.81033 11.67737,13.35203 6.98974,17.09992 -4.80095,3.8385 -6.77037,5.75429 -13.13963,-3.17019 C 611.18825,360.80359 591.661,353 570.10834,353 c -23.58923,0 -43.79859,10.84464 -57.45468,30.83103 -7.1315,10.4373 -9.84913,19.26737 -10.35076,33.63136 -0.44493,12.74056 0.54543,19.51175 4.1008,28.03761 6.1775,14.81381 18.91968,28.551 32.85434,35.41987 19.79837,9.7593 44.55102,8.90285 63.95558,-1.14664 9.98044,-5.1688 21.0954,-15.98943 27.8575,-26.44983 1.76043,-1.15514 4.19918,0.1529 6.47077,1.75805 4.03942,2.85432 4.48152,3.35543 4.47192,4.70004 -0.0505,7.07007 -16.33253,24.51025 -33.32614,33.61347 -15.28413,8.18747 -38.49568,10.60176 -54.57933,7.17394 z m 100.62379,-49.72991 c -0.91674,-12.89742 -0.56016,-108.70608 -0.56016,-108.70608 l 14.3886,0.0692 c 0,0 -0.0214,10.25411 -0.0114,53.17035 0.0128,55.02432 0.11054,56.24032 5.38678,66.9966 4.56408,9.30444 16.82909,25.82172 45.34476,25.65512 28.51568,-0.16659 43.12832,-18.88596 48.09144,-34.45291 1.14791,-3.60046 1.69187,-11.43 2.14257,-57.57125 l 0.52258,-53.5 4.41979,-0.31579 c 2.43088,-0.17368 5.46838,-0.0526 6.75,0.26905 l 2.33016,0.58482 v 51.82099 c 0,48.33296 -0.13297,52.34087 -1.97544,59.5449 -5.46394,21.36375 -27.02126,47.90526 -62.96468,47.92922 -35.94342,0.024 -62.22834,-28.46865 -63.865,-51.49422 z M 898.8966,342.05467 v 13.84467 h -89.41224 v 59.79755 h 67.35952 l 0.0198,14.36213 h -67.37932 v 55.80388 l 90.15557,0.81908 -0.0149,12.60045 -104.5365,0.32045 V 342.05467 Z m 39.33847,155.74844 -0.67376,-17.67959 c 0,0 66.31159,-55.24395 67.26439,-56.12194 2.4478,-2.25557 16.2309,-15.35047 18.4286,-18.86994 5.3222,-8.52307 4.7353,-19.9252 -1.8248,-27.37785 -7.7826,-8.84154 -21.78715,-11.41368 -33.17419,-5.72351 -7.44064,3.71813 -10.84389,7.99357 -13.80782,17.34649 l -1.66403,8.16152 L 941,397.94075 v -4.52101 c 0,-10.36015 7.03347,-25.81255 16.1933,-35.57635 11.96541,-12.75439 26.31489,-18.85512 44.2866,-18.82861 18.3238,0.027 31.4814,5.13168 43.0524,16.70268 10.599,10.59901 15.4351,22.82201 15.4558,39.06409 0.013,10.23694 -2.0715,18.22208 -6.6508,25.47621 -4.0991,6.49335 -9.4578,12.34729 -22.7342,23.32377 -5.676,4.69272 -32.48608,27.33644 -32.48608,27.33644 0,0 42.70308,-0.0917 63.86308,0 l 0.1499,28.75276 c 0,0 -118.65532,0.2394 -120.09217,0 -1.41526,-0.23585 -3.80276,-1.86762 -3.80276,-1.86762 z"
         inkscape:path-effect="#path-effect12" />
    </g>
    <path
       id="path10"
       clip-path="none"
       style="display:inline;fill:#ffffff;fill-opacity:1;stroke-width:2"
       d="m 1227.8906,257.38475 c -35.9434,-0.053 -64.6434,12.14748 -88.5742,37.65626 -17.2116,18.34648 -30.6694,46.73474 -32.2344,67.28516 -0.1622,2.13108 -0.1524,5.60052 -0.1524,7.73828 v 1.39452 c 0,2.07756 1.7,3.75351 3.7774,3.72658 l 56.0156,-0.70704 c 2.2026,-0.0278 4.0878,-1.58764 4.5274,-3.7461 l 2.5742,-12.625 c 5.9278,-18.70584 12.7359,-27.25514 27.6172,-34.6914 22.774,-11.38034 50.7824,-6.23776 66.3476,11.44532 13.1202,14.9053 14.2928,37.70776 3.6484,54.7539 -4.3954,7.03894 -31.9598,33.23104 -36.8554,37.74218 -1.6248,1.4972 -98.2782,82.0395 -126.7305,105.7461 -4.3066,3.5883 -7.6275,11.0391 -7.414,16.64062 l 0.7929,20.71876 v 0 c 0.095,2.48256 1.6603,5.52484 3.6172,6.57422 2.1811,1.16964 6.169,1.7262 8.6484,1.75 28.3515,0.27154 181.9945,0.009 224.6875,-0.0703 6.0812,-0.0113 10.9852,-4.95016 10.9532,-11.03124 l -0.1914,-36.82814 c -0.028,-5.33874 -4.38,-9.68912 -9.7188,-9.70312 -36.404,-0.102 -92.4738,-0.0116 -111.4922,0.0234 -3.6275,0.007 -4.3187,-1.88656 -1.5468,-4.22656 13.5948,-11.47624 50.7284,-42.80708 59.953,-50.4336 26.5528,-21.95296 37.2706,-33.66174 45.4688,-46.64844 9.1586,-14.50826 13.3268,-30.47924 13.3008,-50.95312 -0.041,-32.48416 -9.7122,-56.93088 -30.9102,-78.1289 -23.142,-23.142 -49.4578,-33.34836 -86.1054,-33.40236 z"
       sodipodi:nodetypes="ssssccsccsssssccsscsccccsssssss" />
    <path
       id="path11"
       style="display:inline;mix-blend-mode:normal;fill:#eb6f02;fill-opacity:1;stroke-width:1.95968"
       inkscape:highlight-color="#eb6f02"
       d="m 1227.8905,257.38471 c -35.9433,-0.053 -64.6433,12.14753 -88.5742,37.65631 -17.2115,18.34648 -30.6693,46.73472 -32.2343,67.28514 -0.1623,2.13108 -0.1524,5.60054 -0.1524,7.73829 v 1.39452 a 3.7290558,3.7290558 0 0 0 3.7773,3.72654 l 56.0157,-0.70703 a 4.6806604,4.6806604 0 0 0 4.5274,-3.74604 l 2.5741,-12.62504 c 5.9279,-18.70583 12.736,-27.25511 27.6173,-34.69135 22.774,-11.38041 50.7824,-6.23783 66.3477,11.44533 13.12,14.90519 14.2927,37.70771 3.6483,54.75381 -4.3953,7.03901 -31.9599,33.23106 -36.8555,37.74219 -0.3165,0.2916 -18.3628,15.31249 -24.6835,20.5977 l 53.6484,37.56639 c 8.6486,-7.27464 19.1141,-16.13024 22.5899,-19.00387 26.5527,-21.95301 37.2705,-33.66178 45.4688,-46.64842 9.1585,-14.50832 13.3267,-30.4793 13.3007,-50.95316 -0.041,-32.48412 -9.7122,-56.93091 -30.9101,-78.1289 -23.1421,-23.14203 -49.458,-33.34836 -86.1056,-33.40241 z" />
  </g>
</svg>
